# xmcd
#
# Track frame offsets: 
#        150
#        20000
#        39325
#        58477
#        78195
#        95305
#        102182
#        123375
#        144462
#        163060
#        176785
#        194110
#        214012
#        220247
#        239752
#        275095
#
# Disc length: 4248 seconds
#
# Revision: 4
# Processed by: cddbd v1.5.2PL0 Copyright (c) Steve Scherf et al.
# Submitted via: ExactAudioCopyFreeDBPlugin 1.0
#
DISCID=f6109610
DTITLE=Tyrese - 2000 Watts
DYEAR=2001
DGENRE=R&B
TTITLE0=I Like Them Girls
TTITLE1=I Ain't The One
TTITLE2=Just A Baby Boy Feat. Snoop Dogg and Mr. Tan
TTITLE3=Make Up Your Mind
TTITLE4=There For Me (Baby)
TTITLE5=Interlude - Lord You Control Me
TTITLE6=I'm Sorry
TTITLE7=What Am I Gonna Do
TTITLE8=Fling
TTITLE9=Off The Heezy Feat. Jermaine Dupri
TTITLE10=Get Up On It Feat. Sole
TTITLE11=Housekeepin'
TTITLE12=Interlude - I Wrote A Song About It
TTITLE13=For Always
TTITLE14=Bring You Back My Way
TTITLE15=DATA
EXTD=\n\n
EXTT0=
EXTT1=
EXTT2=
EXTT3=
EXTT4=
EXTT5=
EXTT6=
EXTT7=
EXTT8=
EXTT9=
EXTT10=
EXTT11=
EXTT12=
EXTT13=
EXTT14=
EXTT15=
PLAYORDER=
